<?xml version="1.0" encoding="UTF-8" standalone="no"?>
<!-- Created with Inkscape (http://www.inkscape.org/) -->

<svg
   xmlns:dc="http://purl.org/dc/elements/1.1/"
   xmlns:cc="http://creativecommons.org/ns#"
   xmlns:rdf="http://www.w3.org/1999/02/22-rdf-syntax-ns#"
   xmlns:svg="http://www.w3.org/2000/svg"
   xmlns="http://www.w3.org/2000/svg"
   xmlns:xlink="http://www.w3.org/1999/xlink"
   xmlns:sodipodi="http://sodipodi.sourceforge.net/DTD/sodipodi-0.dtd"
   xmlns:inkscape="http://www.inkscape.org/namespaces/inkscape"
   width="159.10277mm"
   height="34.924999mm"
   viewBox="0 0 159.10277 34.924999"
   version="1.1"
   id="svg3769"
   inkscape:version="0.92.3 (2405546, 2018-03-11)"
   sodipodi:docname="logo.svg">
  <defs
     id="defs3763" />
  <sodipodi:namedview
     id="base"
     pagecolor="#ffffff"
     bordercolor="#666666"
     borderopacity="1.0"
     inkscape:pageopacity="0.0"
     inkscape:pageshadow="2"
     inkscape:zoom="1.4"
     inkscape:cx="242.22874"
     inkscape:cy="67.153067"
     inkscape:document-units="mm"
     inkscape:current-layer="layer1"
     showgrid="false"
     inkscape:window-width="1718"
     inkscape:window-height="1378"
     inkscape:window-x="-7"
     inkscape:window-y="201"
     inkscape:window-maximized="0" />
  <metadata
     id="metadata3766">
    <rdf:RDF>
      <cc:Work
         rdf:about="">
        <dc:format>image/svg+xml</dc:format>
        <dc:type
           rdf:resource="http://purl.org/dc/dcmitype/StillImage" />
        <dc:title />
      </cc:Work>
    </rdf:RDF>
  </metadata>
  <g
     inkscape:label="Layer 1"
     inkscape:groupmode="layer"
     id="layer1"
     transform="translate(-26.28195,-131.37083)">
    <image
       sodipodi:absref="C:\xampp\htdocs\choco_lad\resources\images\choco_lad.png"
       xlink:href="choco_lad.png"
       y="131.37083"
       x="26.28195"
       id="image3779"
       style="image-rendering:optimizeQuality"
       preserveAspectRatio="none"
       height="34.924999"
       width="159.10277" />
    <path
       style="fill:#000000;stroke-width:0.35277775"
       d="m 108.83195,150.06805 v -12.7 h 3.52777 3.52778 v 9.87778 9.87778 h 5.64445 5.64444 v 2.82222 2.82222 h -9.17222 -9.17222 z m 17.63888,9.87778 v -2.11667 h -5.64444 -5.64444 v -9.87777 -9.87778 h -2.82223 -2.82222 v 11.99444 11.99445 h 8.46667 8.46666 z m 1.17806,2.04047 c 0.11144,-0.44404 2.17924,-6.12511 4.5951,-12.6246 l 4.39248,-11.81726 4.09616,-0.0995 c 3.09586,-0.0752 4.12844,0.011 4.22835,0.35278 0.0727,0.24872 2.05566,5.69098 4.40656,12.09389 2.35089,6.40292 4.27274,11.91948 4.27077,12.25903 -0.003,0.54382 -0.39767,0.61736 -3.31178,0.61736 -2.2213,0 -3.42528,-0.14488 -3.66458,-0.44097 -0.19601,-0.24254 -0.64274,-1.3583 -0.99273,-2.47948 l -0.63634,-2.03851 -4.40084,0.0982 -4.40083,0.0982 -0.76434,2.29306 -0.76433,2.29305 -3.62815,0.101 c -3.62541,0.10091 -3.62798,0.10038 -3.4255,-0.70636 z m 7.1128,-2.39325 0.76402,-2.29305 4.68417,-0.0987 c 2.81081,-0.0592 4.85719,0.0449 5.11681,0.26036 0.23796,0.19749 0.72163,1.31347 1.07481,2.47996 l 0.64215,2.12089 h 2.94276 c 1.61852,0 2.94276,-0.13419 2.94276,-0.2982 0,-0.33263 -7.2288,-19.93379 -7.76123,-21.04486 -0.18596,-0.38805 -0.49839,-1.14789 -0.6943,-1.68851 l -0.3562,-0.98297 -3.38747,0.10102 -3.38746,0.10102 -4.20135,11.28889 c -2.31074,6.20888 -4.2935,11.57361 -4.40615,11.9216 -0.18685,0.57727 0.0348,0.62364 2.52892,0.52917 l 2.73373,-0.10355 z m 2.64114,-6.96736 c -0.002,-0.33955 0.57797,-2.32392 1.28941,-4.40972 0.9225,-2.70458 1.45492,-3.79095 1.8562,-3.78744 0.40299,0.004 0.94433,1.15436 1.90751,4.05516 0.73966,2.22763 1.24623,4.20979 1.12571,4.4048 -0.12052,0.19501 -1.55914,0.35456 -3.19693,0.35456 -2.59923,0 -2.97831,-0.0785 -2.9819,-0.61736 z m 5.45401,-0.88194 c -0.60126,-1.97127 -2.09785,-5.55625 -2.31953,-5.55625 -0.13481,0 -0.72428,1.42875 -1.30994,3.175 l -1.06485,3.175 h 2.46821 c 2.39617,0 2.46114,-0.0232 2.22611,-0.79375 z m 14.11347,10.58116 c -0.0935,-0.24373 -0.12824,-5.91904 -0.0771,-12.61181 l 0.0929,-12.16866 5.46806,-0.10337 c 3.00743,-0.0568 6.47869,0.0701 7.71392,0.28205 2.98051,0.5115 5.18422,1.59032 7.04271,3.44775 2.89511,2.89348 4.09279,7.12801 3.15346,11.14951 l -0.48489,2.07593 0.0186,-3.83982 c 0.0166,-3.42821 -0.0804,-4.05109 -0.90557,-5.81061 -1.65757,-3.53465 -4.34914,-5.50368 -8.59653,-6.28885 -1.14075,-0.21088 -4.50556,-0.38342 -7.47736,-0.38342 h -5.40326 v 11.99444 11.99445 h 5.40326 c 2.9718,0 6.33885,-0.17296 7.48234,-0.38434 3.70168,-0.68429 6.15709,-2.36071 8.42238,-5.75031 1.02818,-1.53849 1.2047,-1.44218 0.35793,0.19529 -0.90362,1.7474 -3.34529,4.17565 -5.08538,5.05742 -0.88872,0.45035 -2.55143,0.99177 -3.69493,1.20315 -1.14349,0.21139 -4.5949,0.38434 -7.6698,0.38434 -4.16174,0 -5.63419,-0.11327 -5.76077,-0.44314 z M 34.037687,161.62152 c -0.927396,-0.47007 -1.856992,-1.29725 -2.279611,-2.02847 -0.646252,-1.11815 -0.72268,-1.9508 -0.809519,-8.81944 -0.09271,-7.3326 -0.0692,-7.63163 0.707008,-8.99584 1.100389,-1.93395 3.263238,-2.99861 6.091662,-2.99861 1.527494,0 2.590006,0.22813 3.696959,0.79375 0.854371,0.43657 1.87476,1.23468 2.267531,1.77358 0.573425,0.78678 0.741969,1.67299 0.855433,4.49792 l 0.141305,3.51809 h -3.216031 -3.21603 v -2.80141 c 0,-2.66069 -0.380253,-3.84683 -0.844979,-2.63577 -0.3281,0.85501 -0.242218,12.95932 0.09573,13.49245 0.469886,0.74126 0.749248,-0.36569 0.749248,-2.96885 v -2.2642 h 3.175 3.175 l -0.002,2.38125 c -0.0011,1.30969 -0.158272,2.94391 -0.349321,3.63162 -0.394054,1.41845 -2.163438,3.28643 -3.640419,3.84327 -0.546207,0.20593 -1.901632,0.37441 -3.012055,0.37441 -1.394546,0 -2.503266,-0.24548 -3.584936,-0.79375 z m 7.270193,-0.99045 c 0.670424,-0.41435 1.440394,-1.18158 1.711044,-1.70496 0.27065,-0.52338 0.604813,-2.09555 0.742585,-3.49372 l 0.250494,-2.54212 h -2.500187 -2.500188 l -0.103034,2.73403 -0.103034,2.73403 h -1.058333 -1.058333 v -7.76111 -7.76111 h 1.058333 1.058333 l 0.102462,2.91041 0.102462,2.91042 h 2.506096 2.506097 l -0.198614,-2.62613 c -0.109237,-1.44437 -0.409963,-3.06563 -0.66828,-3.6028 -1.353572,-2.81476 -6.268751,-3.72003 -9.325054,-1.71746 -1.718024,1.12569 -2.047585,2.4001 -2.191774,8.47556 -0.154637,6.51571 0.251165,9.47269 1.466819,10.68834 1.909865,1.90987 5.761258,2.26514 8.202106,0.75662 z m 22.746366,1.18475 c -0.665304,-0.3494 -1.538429,-1.08347 -1.940278,-1.63128 -0.676271,-0.9219 -0.730631,-1.47772 -0.730631,-7.47066 0,-5.98913 0.05454,-6.5477 0.727354,-7.44886 0.400043,-0.53581 1.165747,-1.30152 1.701563,-1.70156 0.802055,-0.59882 1.494963,-0.72735 3.921083,-0.72735 2.42612,0 3.119028,0.12853 3.921082,0.72735 0.535817,0.40004 1.301521,1.16575 1.701564,1.70156 0.671082,0.89884 0.727354,1.46149 0.727354,7.27248 0,5.81098 -0.05627,6.37363 -0.727354,7.27247 -1.444025,1.93411 -2.471745,2.41791 -5.381879,2.53348 -2.082856,0.0827 -2.990218,-0.0394 -3.919858,-0.52763 z m 7.003679,-1.09127 c 1.961176,-1.46423 2.230808,-2.21268 2.415868,-6.70605 0.225986,-5.48708 -0.04279,-7.19216 -1.372418,-8.70653 -1.341304,-1.52765 -3.98465,-2.22795 -6.133846,-1.62502 -1.654337,0.4641 -2.293581,0.91711 -3.14918,2.23171 -0.458414,0.70434 -0.679051,1.95367 -0.814818,4.61381 -0.102397,2.00636 -0.07134,4.72024 0.06901,6.03086 0.199641,1.8642 0.460682,2.61292 1.19918,3.43944 0.519194,0.58108 1.49733,1.19531 2.173637,1.36497 1.752882,0.43972 4.598984,0.11356 5.612567,-0.64319 z m -4.039866,-1.91157 c -0.101187,-0.26369 -0.140395,-3.25199 -0.08713,-6.64066 0.09265,-5.89374 0.12748,-6.16121 0.802407,-6.16121 0.68011,0 0.705555,0.23518 0.705555,6.52155 0,5.93482 -0.05564,6.53228 -0.618426,6.64066 -0.340138,0.0655 -0.70122,-0.0966 -0.802406,-0.36034 z m 0.801557,-9.36229 c -0.06467,-1.69774 -0.117581,-0.30868 -0.117581,3.08681 0,3.39548 0.05291,4.78454 0.117581,3.0868 0.06467,-1.69774 0.06467,-4.47587 0,-6.17361 z m 10.591648,12.25728 c -2.263892,-1.22797 -2.547289,-2.18332 -2.668002,-8.99409 -0.09489,-5.35385 -0.03426,-6.12873 0.565164,-7.22315 0.392511,-0.71664 1.315508,-1.57059 2.221794,-2.05559 1.287314,-0.68891 1.95242,-0.80825 3.92031,-0.70346 1.685181,0.0897 2.647251,0.33323 3.329591,0.84268 1.737465,1.2972 2.30167,2.39493 2.499843,4.86379 l 0.187469,2.33546 h -2.87052 -2.870521 v -1.94028 c 0,-1.06715 -0.15875,-1.94028 -0.352778,-1.94028 -0.435289,0 -0.476324,10.54778 -0.04369,11.23027 0.237942,0.37537 0.343895,0.35169 0.523766,-0.11704 0.124016,-0.32318 0.225481,-1.44774 0.225481,-2.49903 v -1.91142 h 2.645834 2.645833 v 2.04192 c 0,1.42209 -0.240944,2.51345 -0.79375,3.59532 -1.191429,2.33167 -2.29767,2.97578 -5.309563,3.09146 -2.010639,0.0772 -2.814013,-0.0512 -3.856259,-0.61656 z m 6.784572,-1.0073 c 1.279066,-0.94588 2.039309,-2.43806 2.31673,-4.5472 l 0.243611,-1.85209 h -1.985726 -1.985726 v 1.91143 c 0,1.05128 -0.09636,2.16253 -0.214133,2.46944 -0.117771,0.30692 -0.590998,0.55802 -1.051612,0.55802 -0.575346,0 -0.898716,-0.24844 -1.033117,-0.79375 -0.107604,-0.43656 -0.150315,-3.41312 -0.09492,-6.61458 l 0.100726,-5.82083 h 0.881944 c 0.82622,0 0.888629,0.12816 0.987742,2.02847 l 0.105802,2.02847 h 2.099059 c 1.154487,0 2.099063,-0.15093 2.099063,-0.33541 0,-0.18448 -0.17061,-1.13095 -0.379137,-2.10327 -0.275738,-1.28573 -0.700892,-2.05035 -1.558967,-2.80375 -0.660407,-0.57985 -1.796151,-1.14004 -2.579744,-1.27242 -1.902622,-0.32145 -4.048721,0.31903 -5.316266,1.58657 -0.815714,0.81572 -1.107493,1.49805 -1.300222,3.04063 -0.136673,1.09389 -0.170512,3.75606 -0.0752,5.91592 0.230265,5.21792 0.809477,6.33586 3.780599,7.29698 1.317279,0.42612 3.94244,0.0595 4.959491,-0.69263 z m 7.433408,1.11515 c -0.665303,-0.3494 -1.538428,-1.08347 -1.940277,-1.63128 -0.676272,-0.9219 -0.730631,-1.47772 -0.730631,-7.47066 0,-5.98913 0.05454,-6.5477 0.727353,-7.44886 0.400043,-0.53581 1.165747,-1.30152 1.701564,-1.70156 0.802054,-0.59882 1.494963,-0.72735 3.921082,-0.72735 2.42612,0 3.119029,0.12853 3.921085,0.72735 0.53581,0.40004 1.30152,1.16575 1.70156,1.70156 0.67108,0.89884 0.72736,1.46149 0.72736,7.27248 0,5.81098 -0.0563,6.37363 -0.72736,7.27247 -1.44402,1.93411 -2.471743,2.41791 -5.381877,2.53348 -2.082857,0.0827 -2.990219,-0.0394 -3.919859,-0.52763 z m 7.00368,-1.09127 c 1.961176,-1.46423 2.230806,-2.21268 2.415866,-6.70605 0.22599,-5.48708 -0.0428,-7.19216 -1.37242,-8.70653 -1.3413,-1.52765 -3.984646,-2.22795 -6.133842,-1.62502 -1.654338,0.4641 -2.293582,0.91711 -3.14918,2.23171 -0.458414,0.70434 -0.679052,1.95367 -0.814818,4.61381 -0.102398,2.00636 -0.07134,4.72024 0.06901,6.03086 0.199641,1.8642 0.460682,2.61292 1.19918,3.43944 0.519193,0.58108 1.49733,1.19531 2.173636,1.36497 1.752883,0.43972 4.598984,0.11356 5.612568,-0.64319 z m -4.039867,-1.91157 c -0.101187,-0.26369 -0.140395,-3.25199 -0.08713,-6.64066 0.09265,-5.89374 0.12748,-6.16121 0.802407,-6.16121 0.68011,0 0.705556,0.23518 0.705556,6.52155 0,5.93482 -0.05564,6.53228 -0.618426,6.64066 -0.340138,0.0655 -0.70122,-0.0966 -0.802407,-0.36034 z m 0.801557,-9.36229 c -0.06467,-1.69774 -0.117581,-0.30868 -0.117581,3.08681 0,3.39548 0.05291,4.78454 0.117581,3.0868 0.06467,-1.69774 0.06467,-4.47587 0,-6.17361 z m -50.004332,1.14653 v -11.46528 h 3.175 3.175 v 2.10794 2.10793 l 0.90491,-0.34405 c 0.497701,-0.18922 1.54545,-0.34404 2.328333,-0.34404 1.148425,0 1.65515,0.23173 2.622868,1.19944 l 1.199444,1.19945 v 8.50194 8.50195 h -3.175 -3.174999 v -7.58473 c 0,-4.82129 -0.128532,-7.58472 -0.352778,-7.58472 -0.224247,0 -0.352778,2.76343 -0.352778,7.58472 v 7.58473 h -3.175 -3.175 z m 5.725759,3.0868 0.09507,-7.67291 H 53.093056 53.975 l 0.09508,7.67291 0.09507,7.67292 h 2.486814 2.486815 l -0.112445,-7.93017 -0.112444,-7.93017 -0.970139,-0.96945 c -0.728081,-0.72757 -1.315193,-0.96945 -2.353072,-0.96945 -0.815085,0 -1.659405,0.2502 -2.05625,0.60934 -1.223503,1.10726 -1.499705,0.76468 -1.499705,-1.8601 v -2.46944 h -2.469445 -2.469444 v 10.75972 10.75972 h 2.462564 2.462564 z m 111.201749,4.04822 c -0.0949,-0.24733 -0.12961,-3.85889 -0.0771,-8.02569 l 0.0954,-7.576 2.01507,-0.1054 c 2.94117,-0.15384 4.78492,0.46256 6.49311,2.17075 1.58897,1.58896 2.24761,3.30974 2.24761,5.87215 0,0.87313 -0.17614,2.22198 -0.39143,2.99745 -0.51099,1.84065 -2.88043,4.21009 -4.72108,4.72108 -1.96705,0.54609 -5.444,0.51272 -5.6616,-0.0543 z m 5.64621,-0.64696 c 0.76701,-0.21295 1.90158,-0.8942 2.52128,-1.5139 1.25661,-1.25661 1.90106,-3.12221 1.90106,-5.50333 0,-2.38111 -0.64445,-4.24672 -1.90106,-5.50333 -1.29652,-1.29652 -3.12631,-1.90023 -5.76792,-1.90303 l -1.85208,-0.002 v 7.40833 7.40833 l 1.85208,-0.002 c 1.01865,-10e-4 2.47963,-0.1762 3.24664,-0.38914 z"
       id="path4740"
       inkscape:connector-curvature="0" />
  </g>
</svg>
